<svg height='100px' width='100px'  fill="#000000" xmlns="http://www.w3.org/2000/svg" xmlns:xlink="http://www.w3.org/1999/xlink" version="1.1" x="0px" y="0px" viewBox="0 0 128 128" style="enable-background:new 0 0 128 128;" xml:space="preserve"><g><path d="M21.4157715,19.1578369C21.1486816,20.0593872,21,21.0118408,21,22c0,0.2542114,0.0194092,0.5036621,0.0380859,0.7531128   c-0.3789062,0.991394-1.0772705,2.2227173-2.369873,3.2564697c-0.723999,0.5790405-0.9604492,1.5800781-0.6118164,2.4391479   c0.4946289,1.218811,1.9716797,1.7238159,3.086792,1.026123c0.5194092-0.3250122,1.0526123-0.7355957,1.5289307-1.2209473   c-0.4071045,0.7655029-0.9743652,1.5699463-1.7666016,2.2851562c-0.7205811,0.6505127-0.9260254,1.6998901-0.5200195,2.581665   c0.3054199,0.663208,0.8840332,1.0941772,1.5283203,1.2460327c0.6245117,0.1471558,1.3105469,0.0322266,1.871582-0.399231   c0.4958496-0.3814087,1.0019531-0.8275146,1.4436035-1.324585c0.4829102-0.5431519,0.8806152-1.149292,1.1088867-1.7995605   C27.7304688,31.5791016,29.3154297,32,31,32c3.192749,0,6.0292969-1.501709,7.8601074-3.8312378   c0.0510254,0.5994263,0.1707764,1.1332397,0.3496094,1.5927734c0.7971191,2.0480347,3.5932617,2.3463135,4.9118652,0.5881348   c0.7227783-0.9636841,0.7460938-2.2711182,0.0969238-3.2858887c-0.9196777-1.437439-0.8112793-2.1148682-0.8112793-2.1148682   c0.0699463,0.0543823,0.1495361,0.1032715,0.2368164,0.1471558c1.3569336,0.6831055,3.0029297-0.1693115,3.4484863-1.6217651   l0.020752-0.0671997c0.3452148-1.1254272-0.1297607-2.3233643-1.1254883-2.951416   c-2.588501-1.6329956-4.2115479-3.9879761-4.2115479-3.9879761c-3.5882568-6.1978149-9.413208-6.2443848-9.413208-6.2443848   s-2.0061035-0.2662964-4.295166,0.3895874c0.0073242-0.1015015,0.0305176-0.1983643,0.0305176-0.3016968   c0-2.3442383-1.9003906-4.2446899-4.244751-4.2446899s-4.244751,1.9004517-4.244751,4.2446899   c0,0.303894,0.03479,0.5991211,0.095459,0.8848877c-1.3503418,0.7104492-2.2814941,2.1105957-2.2814941,3.7424316   C17.4228516,17.1965332,19.19104,19.0250244,21.4157715,19.1578369z M31,30c-2.3657227,0-4.4881592-1.038147-5.9541016-2.6757202   l-0.3422852-0.5457153c6.6170654-2.8751831,8.5397949-8.1213989,9.0869141-11.237854   c0.9688721,1.0547485,2.3483887,2.1096191,4.1717529,2.5328369C38.619873,19.2348022,39,20.572876,39,22   C39,26.4111938,35.4112549,30,31,30z"></path><path d="M119,118H44.0932617c0.9390869-0.8807983,1.5297852-2.1266479,1.5151367-3.5183716   c-0.1269531-12.0569458-0.4404297-34.7125854-0.512207-44.9789429c-0.0333252-4.7702026-1.6196289-9.5300903-0.7641602-14.2231445   l1.0615234-5.8236084c0.0161133-0.1802979,0.0273438-0.3566895,0.0375977-0.5324097   c0.2854004-4.9022827-1.6107178-7.9993286-1.6342773-8.0363159c-0.2490234-0.3946533-0.1737061-0.8865356,0.1331787-1.2110596   c0.0552979-0.0585327,0.1033936-0.1226807,0.1744385-0.1678467c0.4667969-0.2958984,1.0810547-0.1606445,1.3779297,0.3027344   c0.1094971,0.1710815,2.2327881,3.5789185,1.9639893,9.0126343l10.65979-0.5284424   c1.6838379-0.0834351,3.3503418-0.3794556,4.9598389-0.8810425l16.3736572-5.1022339   c2.0516357-0.6393433,3.2768555-2.7381592,2.824707-4.8391113c-0.4924316-2.2883911-2.7775879-3.7180176-5.0507812-3.1598511   l-12.9056396,3.1687012c-3.0872803,0.7580566-6.3109131,0.7692261-9.4034424,0.0325317l-11.6068115-2.7648926   c-1.5559082-0.3706055-3.1456299-0.571228-4.7432861-0.6184692l0.0131836-0.0166016h-0.5356445H37.699585h-3.2952881h-4.5830078   H28.5625c-3.4648438,0-6.6601562,2.0249023-8.1386719,5.1582031l-6.7734375,14.3505859   c-0.4335938,0.9189453-0.6630859,1.9423828-0.6630859,2.9594727c0,3.0884399,2.0117188,5.732605,4.9302979,6.6137695   c0.1470947,0.0444336,0.2852783,0.105957,0.4368896,0.1411133l17.2636719,4.0029297   c1.3896484,0.3227539,2.7998047-0.4458008,3.2861328-1.7836914c0.5283203-1.4570312-0.2265625-3.0756836-1.6826172-3.6074219   l-13.0429688-4.7602539c-0.53125-0.1938477-0.9570312-0.6049805-1.1679688-1.1289062   c-0.2119141-0.5234375-0.1923828-1.1152344,0.0546875-1.6230469l2.8037109-5.7822266   c0.2412109-0.4975586,0.8398438-0.7045898,1.3359375-0.4638672c0.0671387,0.0325317,0.114502,0.0854492,0.1705322,0.1298828   c0.3598633,0.284729,0.5010986,0.7764893,0.2923584,1.2060547l-2.8037109,5.7832031l13.0429688,4.7602539   c2.4902344,0.9091797,3.7802734,3.6762695,2.8769531,6.168457c-0.7041016,1.9375-2.5429688,3.1748047-4.5302734,3.1748047   c-0.359375,0-0.7236328-0.0405273-1.0869141-0.125l-17.2636719-4.0029297   c-0.0197754-0.0045776-0.0385742-0.0114136-0.0582275-0.0161133c-0.15271,4.5598755,0.1943359,9.1230469,1.065918,13.6027222   l0.4404297,2.2637329c0.6531982,3.3571777,1.0206299,6.7592163,1.0993652,10.1784668   c0.1550293,6.7332764,0.3624268,16.5646362,0.5196533,23.3273926C21.0012207,115.97052,21.5773926,117.1550293,22.4760742,118H10   c-0.5527344,0-1,0.4477539-1,1s0.4472656,1,1,1h109c0.5527344,0,1-0.4477539,1-1S119.5527344,118,119,118z M29.0253906,118   c0.8588867-0.8101196,1.418335-1.9368896,1.4891357-3.203064c0.5113525-9.1397705,1.2374268-23.9200439,1.5373535-29.3218384   c0.0344238-0.6195068,0.5484619-1.0966187,1.1688232-1.0924072c0.6157227,0.0042725,1.1213379,0.4874878,1.1534424,1.1022949   l1.5305176,29.2897339c0.0665283,1.2745972,0.6295166,2.4098511,1.4945068,3.2252808H29.0253906z"></path><path d="M105.1191406,84.3399048c0.1015625-1.1567993-0.8375244-2.1450806-1.9987793-2.1450806l-20.1176758-0.000061   c-0.0009766,0-0.001709-0.0002441-0.0026855-0.0002441v24.1260986   C94.7282715,105.3624878,104.0913086,96.0482788,105.1191406,84.3399048z"></path><path d="M81,60.0477295c-0.013916-1.1497192-0.9940186-2.0703125-2.1425781-1.9694824   C65.991333,59.2077637,56.0124512,70.4013062,56.840332,83.7394409c0.2089844,3.3656616,1.1451416,6.5443726,2.6184082,9.4119263   L81,80.6254272V60.0477295z"></path><path d="M79.4580078,106.3569946c0.5178223,0.0321655,1.0310059,0.0424194,1.5419922,0.0424194V82.9388428L60.4440918,94.8918457   C64.4772949,101.3682251,71.4650879,105.8609009,79.4580078,106.3569946z"></path><path d="M89.9921875,76.9916992h20.1152344c0.84375,0,1.6552734-0.3574219,2.2265625-0.980957   c0.5615234-0.6137695,0.8417969-1.4379883,0.7695312-2.2602539C112.03125,61.5717773,102.4121094,51.953125,90.2333984,50.8798828   c-0.8232422-0.0732422-1.6484375,0.2075195-2.2636719,0.7705078c-0.6210938,0.5693359-0.9775391,1.378418-0.9775391,2.2207031   v20.1225586C86.9921875,75.6469727,88.3378906,76.9916992,89.9921875,76.9916992z M88.9921875,53.8710938   c0-0.2827148,0.1201172-0.5546875,0.3291016-0.7460938c0.1826172-0.1669922,0.4111328-0.2568359,0.6513672-0.2568359   c0.0283203,0,0.0566406,0.0014648,0.0849609,0.0039062c11.2119141,0.9882812,20.0664062,9.8427734,21.0537109,21.0541992   c0.0234375,0.269043-0.0664062,0.5297852-0.2529297,0.7338867c-0.1933594,0.2104492-0.4667969,0.331543-0.7509766,0.331543   H89.9921875c-0.5517578,0-1-0.4477539-1-0.9980469V53.8710938z"></path></g></svg>