<svg height='100px' width='100px'  fill="#000000" xmlns="http://www.w3.org/2000/svg" xmlns:xlink="http://www.w3.org/1999/xlink" version="1.1" x="0px" y="0px" viewBox="0 0 128 128" style="enable-background:new 0 0 128 128;" xml:space="preserve"><g><path d="M74,104v-1v-1h-2.2855225c-0.8618774,0-1.718811,0.1209717-2.546936,0.3596802l-0.2749634,0.0792236l-2.7289429,0.786499   c-0.4680176,0.1348267-0.9522705,0.2032471-1.4393311,0.2032471c-0.3883667,0-0.7772827-0.0438232-1.1914673-0.1379395   l-9.4744873-1.9812622c-0.5378418-0.1124268-0.9282227-0.5928955-0.9282227-1.142395   C53.130127,99.5235596,53.6536865,99,54.2972412,99h1.8731689h2.6119385h0.6434326   c1.8696289,0,3.7333984-0.246582,5.5395508-0.7324219c0.5332031-0.1435547,0.8496094-0.6923828,0.7060547-1.2255859   c-0.1435547-0.5327148-0.6914062-0.8486328-1.2255859-0.7060547c-1.1991577,0.3230591-2.4266357,0.5265503-3.6634521,0.6136475   v-0.0877075c0-0.5998535,0.4017944-1.1375122,0.9770508-1.3074341l3.8920898-1.1498413   c0.6690674-0.1976318,1.354187-0.3261719,2.0459595-0.3989258c0.3973999-0.0418091,0.7963867-0.0700684,1.1972046-0.0700684   c0.5791626,0,1.163147,0.0445557,1.7357178,0.1323853L74,94.585022v-1.0114746v-0.5916138   c0-0.1456299,0.0378418-0.2804565,0.0942383-0.4058838c0.1420898-0.3158569,0.4372559-0.5506592,0.8017578-0.5887451L88,90.6160278   V63.5256348c-0.894104-0.2104492-1.7189331-0.6519775-2.3847656-1.3181152L78.4072266,55h-1.2225342   c-5.2703247,0-10.3276367,2.0802612-14.0725708,5.7885742L51.3631592,72.4227905   c-1.7415771,1.7245483-4.0558472,2.7494507-6.5032959,2.8800659L29,76.149292v1.4122925l-3.0663452-0.470459   c-0.6766968-0.1038208-1.3583374-0.1555176-2.0391846-0.1555176c-1.2861328,0-2.5693359,0.1845703-3.8096313,0.5509644   l-3.8920898,1.1497803c-1.4294434,0.4223022-2.4104004,1.7350464-2.4104004,3.2255249V82H11H9.2972412   c-1.7491455,0-3.1671143,1.4179688-3.1671143,3.1670532c0,1.4993286,1.0513306,2.7932129,2.5188599,3.1000977l9.4744873,1.9812012   c0.5273438,0.1203003,1.064209,0.1802979,1.6008301,0.1802979c0.6715698,0,1.3427124-0.0940552,1.9931641-0.2814941   l3.0039062-0.8657227C25.3692627,89.0947266,26.0402222,89,26.7144775,89H29v2h17.5751343   c4.4104614,0,8.7667236-0.9724731,12.7584229-2.8482056l6.6110229-3.1064453c0,2.8701782,0.4343872,5.1987915,1.0154419,7.0305786   c-0.6323853,0.0919189-1.2590942,0.2286377-1.8751831,0.4106445l-3.8920898,1.1497803   c-1.4294434,0.4223022-2.4104004,1.7350464-2.4104004,3.2255249V97h-2.6119385h-1.8731689   c-1.7491455,0-3.1671143,1.4179688-3.1671143,3.1670532c0,1.4993286,1.0513306,2.7932129,2.5188599,3.1000977l9.4744873,1.9812012   c0.5273438,0.1203003,1.064209,0.1802979,1.6008301,0.1802979c0.6715698,0,1.3427124-0.0940552,1.9931641-0.2814941   l1.723938-0.4968262l-2.4381714,11.9498291C65.7502441,117.8398438,66.6975708,119,67.9628296,119H88v-14H75   C74.4477539,105,74,104.5522461,74,104z M19.7243042,88.4286499c-0.3883667,0-0.7772827-0.0438232-1.1914673-0.1379395   l-9.4744873-1.9812622c-0.5378418-0.1124878-0.9282227-0.5928955-0.9282227-1.142395   C8.130127,84.5235596,8.6536865,84,9.2972412,84H11h2.7823486h0.8446045c1.8701172,0,3.7338867-0.246582,5.5400391-0.7324219   c0.5332031-0.1435547,0.8496094-0.6923828,0.7060547-1.2255859c-0.1430664-0.5332031-0.6904297-0.8476562-1.2255859-0.7060547   c-1.2642212,0.3405762-2.5600586,0.5477905-3.8651123,0.6260376v-0.1000977c0-0.5998535,0.4017944-1.1375122,0.9770508-1.3074341   l3.8920898-1.1498413c1.0534668-0.3111572,2.1446533-0.4689941,3.2432251-0.4689941   c0.5791016,0,1.1630859,0.0445557,1.7356567,0.1323853L29,79.585022V87h-2.2855225   c-0.8618774,0-1.718811,0.1209717-2.546936,0.3596802l-3.0039062,0.8657227   C20.6956177,88.3602295,20.2113647,88.4286499,19.7243042,88.4286499z"></path><path d="M114.5821533,93.7092896l0.0149536-0.3052979l-8.2738647,8.3421021   C104.2724609,103.8139648,101.4257812,105,98.5131836,105H90v14h24.3023682c1.1720581,0,2.0929565-1.0033569,1.9926758-2.1711426   l-1.638916-19.0822144C114.5408325,96.4040527,114.5161133,95.0551758,114.5821533,93.7092896z"></path><path d="M62.8149414,31.434082c2.4389038,0,4.7171631-0.47229,6.78479-1.3292847   c-1.5352783,1.2114258-3.0614624,1.8258667-3.9473877,1.8258667c-1.6567383,0-3,1.3432617-3,3s1.3432617,3,3,3   c1.387085,0,3.0371094-0.439209,4.7224121-1.2678833c0.0008545,0.0040894,0.0022583,0.0081177,0.0031128,0.012207   c-1.8617554,1.7907715-4.1956787,2.8513794-6.6630249,2.8513794c-1.6567383,0-3,1.3432617-3,3s1.3432617,3,3,3   c2.7575073,0,5.3933105-0.7980347,7.7323608-2.1953125c-1.111084,1.2003174-2.4420776,1.8084717-3.9682007,2.3740234   c-1.5537109,0.5756836-2.3461914,2.3017578-1.7705078,3.8554688c0.4482422,1.2099609,1.5942383,1.9584961,2.8134766,1.9584961   c0.3461914,0,0.6982422-0.0605469,1.0419922-0.1879883c2.6994019-1.0004272,5.0134888-2.3173828,6.8453979-4.5695801   C79.541626,49.4024658,83.5822144,51,88,51c6.918335,0,12.9165039-3.9080811,15.9297485-9.6323853   c0.3439941,2.2225952,0.5863647,4.597168,0.5863647,6.9258423c0,1.6567383,1.3432617,3,3,3s3-1.3432617,3-3   c0-4.1582031-0.651062-8.3730469-1.3827515-11.8057861c1.1921997,0.8539429,2.6055298,1.6213989,4.3143921,2.2042236   c0.3208008,0.109375,0.6474609,0.1616211,0.96875,0.1616211c1.2480469-0.0004883,2.4135742-0.7851562,2.8388672-2.0322266   c0.534668-1.5683594-0.3027344-3.2734375-1.8710938-3.8081055c-5.4038086-1.8432617-6.2143555-6.4023438-6.2407227-6.5610352   c-0.0224609-0.1586914-0.0571289-0.3149414-0.1044922-0.4682617c-2.8374634-9.1984253-12.4221191-12.7012329-15.6994629-13.647522   c-1.4006958-2.387207-4.1741333-4.687439-9.3815918-4.687439c-6.1513672,0-9.0668945,3.2138672-11.409668,5.7963867   c-2.0776367,2.2910156-3.4506836,3.8041992-6.8959961,3.8041992c-1.6567383,0-3,1.3432617-3,3s1.3432617,3,3,3   c1.9793701,0,3.618103-0.3400269,5.0140991-0.8826904c-2.0058594,1.9761353-4.6889038,3.0672607-7.8515015,3.0672607   c-1.6567383,0-3,1.3432617-3,3S61.1582031,31.434082,62.8149414,31.434082z M103.2713623,37.7747192   C101.2354736,44.2721558,95.1599731,49,88,49c-3.987793,0-7.6306763-1.4760742-10.4354248-3.8980103   c-1.2886353-1.112793-2.3920898-2.4279175-3.2735596-3.8945312c-0.3005371-0.500061-0.5755615-1.0155029-0.8210449-1.5488892   c-0.5869751-1.2755737-1.0065918-2.6391602-1.2407227-4.067627c-0.0528564-0.3225708-0.1139526-0.642334-0.1471558-0.9710083   C72.0282593,34.0870972,72,33.546814,72,33c0-0.5583496,0.0297241-1.1097412,0.0858154-1.6535034   c0.5643921-0.0145874,1.1098633-0.0464478,1.6359863-0.0957031c1.270813-0.1191406,2.4377441-0.3302612,3.4984741-0.6288452   c1.0640259-0.2995605,2.0261841-0.6809082,2.8977661-1.1283569c4.1992188-2.1558228,6.2822266-5.8323975,7.2972412-9.2145996   c0.5333862,2.4937134,1.7581787,5.2788086,4.5286865,6.5767822c1.6135254,0.7559814,2.8743896,2.0854492,3.383728,3.7929077   c0.8356934,2.8015137,2.8972168,6.6439819,7.9383545,7.1021118c0.0043945,0.0003662,0.0093384,0.0002441,0.0137329,0.0006714   C103.2773438,37.7593994,103.2738647,37.7667847,103.2713623,37.7747192z"></path><path d="M28,14.5112305c0.5522461,0,1-0.4477539,1-1v-3c0-0.5522461-0.4477539-1-1-1s-1,0.4477539-1,1v3   C27,14.0634766,27.4477539,14.5112305,28,14.5112305z"></path><path d="M34.65625,15.9985352c0.1220703,0.0488281,0.2480469,0.0722656,0.3720703,0.0722656   c0.3964844,0,0.7719727-0.237793,0.9287109-0.6279297l1.1171875-2.7841797   c0.2055664-0.5126953-0.043457-1.0947266-0.5556641-1.3007812s-1.0952148,0.0429688-1.3007812,0.5556641l-1.1171875,2.7841797   C33.8950195,15.2104492,34.144043,15.7924805,34.65625,15.9985352z"></path><path d="M40.3149414,19.3520508c0.2905273,0,0.5791016-0.1259766,0.7768555-0.3696289l1.8916016-2.3286133   c0.3481445-0.4287109,0.2827148-1.0581055-0.1459961-1.4067383c-0.4277344-0.3466797-1.0576172-0.2836914-1.4067383,0.1459961   l-1.8916016,2.3286133c-0.3481445,0.4287109-0.2827148,1.0581055,0.1459961,1.4067383   C39.8701172,19.2788086,40.0932617,19.3520508,40.3149414,19.3520508z"></path><path d="M19.7592773,15.4423828c0.1567383,0.390625,0.5317383,0.628418,0.9287109,0.628418   c0.1235352,0,0.2495117-0.0234375,0.371582-0.0722656c0.5126953-0.2055664,0.7617188-0.7880859,0.5561523-1.300293   l-1.1166992-2.7841797c-0.2050781-0.5117188-0.7866211-0.762207-1.300293-0.5561523   c-0.5126953,0.2055664-0.7617188,0.7880859-0.5561523,1.300293L19.7592773,15.4423828z"></path><path d="M14.6245117,18.9824219c0.1977539,0.2436523,0.4863281,0.3696289,0.7768555,0.3696289   c0.2216797,0,0.4448242-0.0732422,0.6298828-0.2236328c0.4287109-0.3486328,0.4941406-0.9780273,0.1459961-1.4067383   l-1.8916016-2.3286133c-0.3481445-0.4296875-0.9794922-0.4931641-1.4067383-0.1459961   c-0.4287109,0.3486328-0.4941406,0.9780273-0.1459961,1.4067383L14.6245117,18.9824219z"></path><path d="M12.8759766,40.4321289l3.4604492,7.4980469c0.7978516,1.7285156,1.3959961,3.5507812,1.7783203,5.4165039   l0.7124023,3.4794922C19.0854492,58.0859375,20.2055664,59,21.4912109,59h12.6796875   c1.2861328,0,2.40625-0.9145508,2.6635742-2.1738281l0.7128906-3.4794922   c0.3823242-1.8657227,0.9804688-3.6879883,1.7783203-5.4165039l3.4599609-7.4980469   c0.0224609-0.0493164,0.0410156-0.1005859,0.0551758-0.1523438c0.8588867-2.0239258,1.2944336-4.1630859,1.2944336-6.3608398   c0-4.4995117-1.7929688-8.6889648-5.0483398-11.796875c-3.2539062-3.105957-7.5332031-4.6982422-12.0341797-4.4916992   c-8.1762695,0.3798828-14.8300781,6.8178711-15.4780273,14.9755859c-0.2114258,2.6630859,0.2099609,5.2519531,1.2524414,7.6967773   C12.840332,40.3466797,12.8569336,40.3901367,12.8759766,40.4321289z M26.1434937,57l-5.256897-23.4821777l4.5177002,2.595459   c0.7485352,0.4301758,1.5888672,0.6455078,2.4291992,0.6455078c0.8374023,0,1.675293-0.2138672,2.4233398-0.6420898   l4.5460205-2.6032104L29.5449829,57H26.1434937z M13.5688477,32.7641602   c0.5585938-7.0380859,6.5224609-12.8081055,13.5766602-13.1357422c3.956543-0.1796875,7.7060547,1.215332,10.5600586,3.9404297   c2.8564453,2.7265625,4.4296875,6.4023438,4.4296875,10.3500977c0,1.9692383-0.3984375,3.8847656-1.1845703,5.6943359   c-0.015625,0.0351562-0.0283203,0.0708008-0.0395508,0.1069336l-3.4018555,7.3720703   c-0.8618164,1.8681641-1.5083008,3.8374023-1.9208984,5.8530273L34.875,56.425293   C34.8071289,56.7583008,34.5107422,57,34.1708984,57h-2.5760498l5.6556396-25.2631836   c0.0115356-0.0515137-0.0001831-0.100769,0.0031738-0.1518555c0.0050049-0.0719604,0.0153198-0.1419067,0.0044556-0.2141724   c-0.0114136-0.0758057-0.0428467-0.1430664-0.0708618-0.2133179c-0.0177002-0.0450439-0.0203857-0.0927124-0.045166-0.1359863   c-0.0038452-0.0067139-0.0106812-0.0101318-0.0146484-0.0167236c-0.039917-0.0662231-0.0974121-0.1174927-0.1516724-0.1730957   c-0.0374146-0.0380859-0.0670166-0.0844727-0.109314-0.1156006c-0.0429077-0.0317383-0.0967407-0.0465698-0.1450195-0.0714111   c-0.0683594-0.0348511-0.1334229-0.0743408-0.2075195-0.0927124c-0.0078125-0.0019531-0.0133667-0.0076904-0.0212402-0.0094604   c-0.0488281-0.0108032-0.0957031,0.0007324-0.1442261-0.0026855c-0.0751953-0.0058594-0.1486206-0.0157471-0.2243042-0.0042114   c-0.0664062,0.010376-0.125,0.0391846-0.1873169,0.0622559c-0.0531006,0.0193481-0.1087646,0.0239868-0.1594849,0.0530396   l-6.5141602,3.7304688c-0.8833008,0.5058594-1.9794922,0.5053711-2.862793-0.0024414l-6.4882812-3.7275391   c-0.0521851-0.0300293-0.1095581-0.0352173-0.1643066-0.0548706c-0.0602417-0.0218506-0.116394-0.0501099-0.180481-0.0602417   c-0.0767212-0.0118408-0.151123-0.0021973-0.227417,0.0037842c-0.0485229,0.0033569-0.0952148-0.0081787-0.144104,0.0024414   c-0.0079956,0.00177-0.0136108,0.0076904-0.0215454,0.0096436c-0.0701294,0.0174561-0.1314697,0.055603-0.1964722,0.0877075   c-0.0521851,0.026062-0.1098633,0.0423584-0.1559448,0.0764771c-0.0401611,0.02948-0.0679932,0.0739136-0.1037598,0.1096802   c-0.0563965,0.0568848-0.1156006,0.1099243-0.1567993,0.1781616c-0.0039062,0.0064697-0.0106201,0.0098267-0.0144043,0.0163574   c-0.0250854,0.0437012-0.0280151,0.0919189-0.0458374,0.1374512c-0.027771,0.0698242-0.0592651,0.1365967-0.0707397,0.2119141   c-0.0110474,0.0731201-0.0006104,0.144043,0.0045776,0.2167969c0.003418,0.0505371-0.0083008,0.0991821,0.0031128,0.1501465   L24.0936279,57h-2.602417c-0.340332,0-0.6367188-0.2421875-0.7050781-0.5751953l-0.7124023-3.4794922   c-0.4125977-2.015625-1.059082-3.9848633-1.9208984-5.8530273l-3.4135742-7.3959961   c-0.0092773-0.0283203-0.0200195-0.0561523-0.0322266-0.0839844   C13.7631836,37.4399414,13.3803711,35.1362305,13.5688477,32.7641602z"></path><path d="M21,61c-0.3095703,0-0.6010742,0.1430664-0.7905273,0.3876953s-0.2548828,0.5629883-0.1777344,0.862793l1.434082,5.546875   C21.8012695,69.0942383,22.9711914,70,24.3105469,70h7.0883789c1.3393555,0,2.5092773-0.9057617,2.8447266-2.2026367   l1.4345703-5.546875c0.0771484-0.2998047,0.0117188-0.6181641-0.1777344-0.862793S35.0195312,61,34.7099609,61H21z    M32.3071289,67.2963867C32.2001953,67.7109375,31.8266602,68,31.3989258,68h-7.0883789   c-0.4277344,0-0.8012695-0.2890625-0.9082031-0.7036133L22.2915039,63H33.418457L32.3071289,67.2963867z"></path><path d="M98.5131836,103c2.3833008,0,4.7124023-0.9702148,6.3901367-2.6621094l9.6547852-9.734375   c0.065918-0.0665283,0.1217041-0.1401367,0.1865845-0.2073975c3.5788574-3.7102051,5.5560913-8.5732422,5.5560913-13.7384033   c0-5.862793-2.5737305-11.3886719-7.0620117-15.1601562l-3.1149292-2.6188354l-0.0007324,0.0014038   c-2.7487793-2.3723145-6.3195801-3.819458-10.2402954-3.8693848l-7.1967773,7.1967773   C91.9456787,62.9482422,91.0115967,63.416748,90,63.5894165v26.8172607l2.6826172-0.2807007   c1.1049805-0.1157227,2.050293-0.8271484,2.4677734-1.8564453l4.34375-10.7138672   c0.2075195-0.5117188,0.7900391-0.7587891,1.3022461-0.5512695c0.027832,0.0112915,0.0458374,0.0341797,0.0720825,0.0476074   c0.456604,0.2335815,0.675415,0.770752,0.479187,1.2546387l-4.34375,10.7138672   c-0.6958008,1.7163086-2.2714844,2.9018555-4.1132812,3.0947266L90,92.4177246l-2,0.2092896l-12,1.2557983V103h12h2H98.5131836z"></path></g></svg>