<svg height='100px' width='100px'  fill="#000000" xmlns="http://www.w3.org/2000/svg" xmlns:xlink="http://www.w3.org/1999/xlink" version="1.1" x="0px" y="0px" viewBox="0 0 72.917 99.999" enable-background="new 0 0 72.917 99.999" xml:space="preserve"><path d="M27.083,33.333c-7.943,0-11.623,7.91-12.459,12.093c-0.226,1.127,0.507,2.226,1.634,2.449  c1.123,0.232,2.226-0.504,2.452-1.631c0.01-0.049,0.562-2.657,2.124-5.014v19.186c0,1.07,0.812,1.97,1.878,2.075  c0.069,0.004,0.138,0.008,0.208,0.008c0.982,0,1.845-0.691,2.041-1.672l2.083-10.417c0.028-0.143,0-0.272,0-0.411h0.081  c0,0.139-0.028,0.269,0,0.411l2.083,10.417c0.195,0.98,1.058,1.672,2.041,1.672c0.069,0,0.138-0.004,0.208-0.008  c1.066-0.105,1.878-1.001,1.878-2.075V41.198c1.53,2.299,2.083,4.854,2.124,5.046c0.197,0.988,1.068,1.672,2.041,1.672  c0.134,0,0.273-0.012,0.411-0.041c1.127-0.224,1.859-1.322,1.634-2.449C38.707,41.243,35.026,33.333,27.083,33.333z"></path><path d="M54.167,33.333c-7.942,0-11.623,7.91-12.459,12.093c-0.226,1.127,0.507,2.226,1.634,2.449  c1.123,0.232,2.228-0.504,2.451-1.631c0.011-0.049,0.562-2.657,2.124-5.014v19.186c0,1.07,0.812,1.97,1.878,2.075  c0.069,0.004,0.139,0.008,0.208,0.008c0.982,0,1.845-0.691,2.04-1.672l2.084-10.417c0.028-0.143,0-0.272,0-0.411h0.081  c0,0.139-0.028,0.269,0,0.411l2.083,10.417c0.195,0.98,1.059,1.672,2.041,1.672c0.069,0,0.139-0.004,0.207-0.008  c1.066-0.105,1.878-1.001,1.878-2.075V41.198c1.53,2.299,2.084,4.854,2.124,5.046c0.197,0.988,1.068,1.672,2.041,1.672  c0.134,0,0.272-0.012,0.411-0.041c1.127-0.224,1.859-1.322,1.634-2.449C65.79,41.243,62.11,33.333,54.167,33.333z"></path><circle cx="27.083" cy="24.999" r="6.25"></circle><circle cx="54.167" cy="24.999" r="6.25"></circle><path d="M65.621,26.781c-0.142-6.909-5.153-6.991-5.204-6.991c-0.335,0-0.648,0.163-0.844,0.436  c-0.197,0.269-0.251,0.619-0.145,0.936c2.154,6.461,4.49,6.962,5.155,6.962c0.015,0.004,0.03,0.004,0.041,0  c0.575,0,1.041-0.464,1.041-1.042C65.666,26.977,65.652,26.875,65.621,26.781z"></path><path d="M48.761,20.226c-0.195-0.272-0.509-0.436-0.845-0.436c-0.053,0-5.208,0.085-5.208,7.292c0,0.578,0.466,1.042,1.042,1.042  c0.665,0,3.001-0.5,5.155-6.962C49.011,20.845,48.958,20.495,48.761,20.226z"></path><path fill="#000000" d="M70.833,0h-62.5C3.738,0,0,3.737,0,8.333v83.333c0,4.598,3.738,8.333,8.333,8.333h58.333  c1.151,0,2.084-0.932,2.084-2.083V87.499h2.083c1.151,0,2.083-0.932,2.083-2.083V2.083C72.917,0.932,71.985,0,70.833,0z   M64.583,95.833H8.333c-2.297,0-4.167-1.868-4.167-4.167c0-2.295,1.87-4.167,4.167-4.167h56.25V95.833z M68.75,83.333H12.5V4.167  h56.25V83.333z"></path></svg>